<?xml version="1.0" standalone="no"?>
<!DOCTYPE svg PUBLIC "-//W3C//DTD SVG 20010904//EN"
 "http://www.w3.org/TR/2001/REC-SVG-20010904/DTD/svg10.dtd">
<svg version="1.0" xmlns="http://www.w3.org/2000/svg"
 width="1018.000000pt" height="366.000000pt" viewBox="0 0 1018.000000 366.000000"
 preserveAspectRatio="xMidYMid meet">

<g transform="translate(0.000000,366.000000) scale(0.100000,-0.100000)"
fill="#000000" stroke="none">
<path d="M4880 1023 c-37 -7 -88 -50 -121 -101 -48 -76 -64 -171 -63 -382 0
-167 16 -366 30 -380 3 -3 42 -7 86 -9 l81 -3 -6 53 c-4 30 -11 131 -17 224
-12 179 -7 292 15 321 11 16 14 15 28 -12 25 -48 53 -212 82 -481 7 -60 8 -63
31 -57 13 3 47 11 75 18 l52 11 22 111 c27 133 68 259 95 294 20 25 20 25 36
5 13 -16 15 -39 11 -125 -3 -58 -11 -144 -18 -193 -7 -48 -10 -90 -7 -93 3 -3
41 3 84 13 l79 18 6 105 c28 469 -16 678 -132 630 -46 -19 -119 -139 -170
-279 -26 -73 -27 -72 -53 50 -20 92 -63 184 -102 221 -27 25 -76 50 -92 47 -4
-1 -18 -4 -32 -6z"/>
<path d="M6077 1018 c-21 -6 -41 -16 -43 -22 -3 -7 6 -41 18 -77 18 -49 28
-64 43 -64 20 0 20 -7 18 -320 -1 -176 -4 -329 -7 -341 -5 -19 -1 -23 32 -29
52 -8 187 21 241 52 62 36 124 95 162 154 95 148 91 362 -9 494 -46 61 -143
128 -216 149 -60 18 -180 19 -239 4z m293 -248 c69 -49 90 -171 46 -265 -30
-66 -131 -153 -152 -132 -3 3 -3 105 1 226 l8 220 34 -14 c19 -8 47 -24 63
-35z"/>
<path d="M7230 1020 c-36 -4 -97 -5 -137 -2 l-71 5 -6 -44 c-3 -24 -10 -100
-17 -169 -18 -210 -78 -528 -119 -635 l-10 -27 47 6 c172 20 154 10 168 88 7
44 9 45 65 54 l43 7 -5 -62 c-5 -67 -1 -71 58 -51 16 5 68 20 115 35 l85 25
-27 83 c-45 135 -79 402 -79 620 0 88 12 80 -110 67z m-40 -464 l0 -143 -37
-6 c-20 -4 -38 -5 -40 -3 -2 1 7 66 19 144 16 107 25 142 37 145 9 3 17 5 19
6 1 0 2 -64 2 -143z"/>
<path d="M5746 1008 c-55 -15 -119 -82 -135 -140 -16 -58 -8 -110 25 -161 l25
-38 -37 -41 c-94 -104 -115 -263 -50 -367 38 -59 100 -91 188 -98 64 -4 79 -2
118 19 85 46 140 150 140 266 l0 55 -67 -6 c-38 -4 -78 -7 -89 -7 -19 0 -23
-8 -28 -53 -8 -63 -42 -127 -74 -138 -18 -7 -29 -3 -49 17 -23 23 -25 32 -21
84 7 97 65 165 166 193 41 11 43 14 62 75 11 35 20 66 20 68 0 2 -28 4 -63 4
-75 0 -107 18 -107 59 0 58 70 83 115 41 l24 -22 40 80 40 80 -42 17 c-52 21
-149 28 -201 13z"/>
<path d="M6754 1010 c-31 -12 -54 -49 -54 -86 0 -71 90 -94 141 -36 31 35 35
52 18 84 -8 15 -68 50 -81 47 -2 0 -13 -4 -24 -9z"/>
<path d="M6763 809 c-35 -4 -67 -11 -73 -14 -20 -12 -6 -592 15 -613 2 -3 33
8 68 22 l63 27 -4 183 c-4 161 5 305 25 384 6 25 7 25 -94 11z"/>
</g>
</svg>
